<svg xmlns="http://www.w3.org/2000/svg" data-name="Layer 1" viewBox="0 0 64 64"><line x1="-2.36" x2="1.24" y1="23.44" y2="23.44" fill="#ced8da" stroke="#5f363a" stroke-linecap="round" stroke-linejoin="round" stroke-width="3"/><line x1="20.56" x2="20.56" y1=".51" y2="4.12" fill="#ced8da" stroke="#5f363a" stroke-linecap="round" stroke-linejoin="round" stroke-width="3"/><line x1="4.35" x2="6.9" y1="7.23" y2="9.77" fill="#ced8da" stroke="#5f363a" stroke-linecap="round" stroke-linejoin="round" stroke-width="3"/><line x1="6.9" x2="4.35" y1="37.1" y2="39.64" fill="#ced8da" stroke="#5f363a" stroke-linecap="round" stroke-linejoin="round" stroke-width="3"/><line x1="36.77" x2="34.22" y1="7.23" y2="9.77" fill="#ced8da" stroke="#5f363a" stroke-linecap="round" stroke-linejoin="round" stroke-width="3"/><circle cx="20.56" cy="23.44" r="12.49" fill="#ffdd7d" stroke="#5f363a" stroke-linecap="round" stroke-linejoin="round" stroke-width="3"/><path fill="#ced8da" stroke="#5f363a" stroke-linecap="round" stroke-linejoin="round" stroke-width="3" d="M25.42,28.33a15.76,15.76,0,0,1,31.23.23h0A12.27,12.27,0,0,1,54.1,52.83H24.38a12.27,12.27,0,0,1,0-24.54c.35,0,.7,0,1,0"/><line x1="39.71" x2="35.93" y1="58.73" y2="63.49" fill="#ced8da" stroke="#5f363a" stroke-linecap="round" stroke-linejoin="round" stroke-width="3"/><line x1="52.74" x2="48.96" y1="58.73" y2="63.49" fill="#ced8da" stroke="#5f363a" stroke-linecap="round" stroke-linejoin="round" stroke-width="3"/><line x1="27.52" x2="23.74" y1="58.73" y2="63.49" fill="#ced8da" stroke="#5f363a" stroke-linecap="round" stroke-linejoin="round" stroke-width="3"/></svg>